<svg xmlns="http://www.w3.org/2000/svg" viewBox="0 0 141.5 141.5"><defs><style>.cls-1{fill:#64bf00;}.cls-2{fill:#009eff;}</style></defs><title>Absorbente</title><g id="Capa_2" data-name="Capa 2"><g id="Layer_1" data-name="Layer 1"><path class="cls-1" d="M69.37,64.27A14.92,14.92,0,0,1,56.45,41.9l7.31-12.65,1.75,1-1.75-1a6.48,6.48,0,0,1,11.22,0l7.3,12.65A14.92,14.92,0,0,1,69.37,64.27Zm0-34.2a2.39,2.39,0,0,0-2.1,1.21L60,43.93a10.85,10.85,0,1,0,18.79,0l-7.3-12.65A2.37,2.37,0,0,0,69.37,30.07Z"/><path class="cls-1" d="M100,105.32H41.25a9.51,9.51,0,0,1-9.5-9.5V88.43a2,2,0,0,1,2-2h73.7a2,2,0,0,1,2,2v7.39A9.52,9.52,0,0,1,100,105.32ZM35.81,90.46v5.36a5.45,5.45,0,0,0,5.44,5.44H100a5.45,5.45,0,0,0,5.44-5.44V90.46Z"/><path class="cls-1" d="M57.84,83.55a2,2,0,0,1-2-2,9.86,9.86,0,0,0-19.71,0,2,2,0,0,1-4.06,0,13.92,13.92,0,0,1,27.83,0A2,2,0,0,1,57.84,83.55Z"/><path class="cls-1" d="M82.22,83.55a2,2,0,0,1-2-2,9.86,9.86,0,0,0-19.71,0,2,2,0,1,1-4.06,0,13.92,13.92,0,0,1,27.83,0A2,2,0,0,1,82.22,83.55Z"/><path class="cls-1" d="M106.59,83.55a2,2,0,0,1-2-2,9.85,9.85,0,0,0-19.7,0,2,2,0,0,1-4.07,0,13.92,13.92,0,0,1,27.83,0A2,2,0,0,1,106.59,83.55Z"/><path class="cls-1" d="M70.69,55.92c-4.73,0-7-3.88-7.61-6.07A2,2,0,0,1,67,48.8a3.93,3.93,0,0,0,4.22,3,2,2,0,0,1,.42,4A7.86,7.86,0,0,1,70.69,55.92Z"/><path class="cls-2" d="M70.75,0A70.75,70.75,0,1,0,141.5,70.75,70.71,70.71,0,0,0,70.75,0Zm0,137.35a66.6,66.6,0,1,1,66.6-66.6A66.67,66.67,0,0,1,70.75,137.35Z"/><path class="cls-2" d="M75.75,8.58a2.07,2.07,0,0,0-.33,4.13,58.23,58.23,0,1,1-9.34,0,2.07,2.07,0,0,0-.33-4.13,62.37,62.37,0,1,0,10,0Z"/></g></g></svg>