<svg xmlns="http://www.w3.org/2000/svg" viewBox="0 0 141.5 141.5"><defs><style>.cls-1{fill:#009eff;}.cls-2{fill:#64bf00;}</style></defs><title>Antimicotico</title><g id="Capa_2" data-name="Capa 2"><g id="Layer_1" data-name="Layer 1"><path class="cls-1" d="M70.75,0A70.75,70.75,0,1,0,141.5,70.75,70.71,70.71,0,0,0,70.75,0Zm0,137.35a66.6,66.6,0,1,1,66.6-66.6A66.67,66.67,0,0,1,70.75,137.35Z"/><path class="cls-1" d="M75.75,8.58a2.07,2.07,0,0,0-.33,4.13,58.23,58.23,0,1,1-9.34,0,2.07,2.07,0,0,0-.33-4.13,62.37,62.37,0,1,0,10,0Z"/><path class="cls-2" d="M64.08,95.63H68.3v4.22H64.08Z"/><path class="cls-2" d="M70.42,91.4h4.22v4.23H70.42Z"/><path class="cls-2" d="M70.42,99.85h4.22v4.23H70.42Z"/><path class="cls-2" d="M85.82,86.41,82,88.6a14.8,14.8,0,0,0-2.47-2.47l2.19-3.8-3.66-2.11L75.9,84a14.75,14.75,0,0,0-11,0l-2.19-3.79-3.66,2.11,2.19,3.8A15.19,15.19,0,0,0,58.8,88.6L55,86.41,52.9,90.06l3.79,2.19a14.78,14.78,0,0,0,0,11l-3.79,2.19L55,109.07l3.79-2.19a15.19,15.19,0,0,0,2.47,2.47l-2.19,3.8,3.66,2.11,2.19-3.79a14.75,14.75,0,0,0,11,0l2.19,3.79,3.66-2.11-2.19-3.8A14.8,14.8,0,0,0,82,106.88l3.79,2.19,2.12-3.65-3.79-2.19a14.88,14.88,0,0,0,0-11l3.78-2.18Zm-26,11.33A10.57,10.57,0,1,1,70.42,108.3,10.56,10.56,0,0,1,59.85,97.74Z"/><path class="cls-2" d="M59.37,66.94l3.92,1.94,1.88-3.78-3.93-1.95a14.32,14.32,0,0,0,.69-3.42l4.38-.28L66,55.24l-4.36.27a14.89,14.89,0,0,0-6.07-9.15l1.94-3.91-3.78-1.88-2,3.92a14.3,14.3,0,0,0-3.43-.69l-.27-4.37-4.22.27.28,4.35A14.8,14.8,0,0,0,35,50.14l-3.92-2L29.24,52l3.93,2a14.64,14.64,0,0,0-.69,3.41l-4.38.28.26,4.21,4.37-.27a14.77,14.77,0,0,0,1.13,3.36l3.81-1.83a10.57,10.57,0,1,1,2.48,3.31l-2.83,3.14a15.21,15.21,0,0,0,1.48,1.17l-1.95,3.91,3.79,1.88,1.94-3.91a15.35,15.35,0,0,0,3.43.69l.27,4.36,4.22-.26L50.23,73a14.82,14.82,0,0,0,9.14-6.07Z"/><path class="cls-2" d="M40.74,60.29,44.26,58l2.34,3.52-3.52,2.34Z"/><path class="cls-2" d="M43.68,53.27l3.52-2.34,2.34,3.52L46,56.78Z"/><path class="cls-2" d="M48.36,60.31,51.87,58l2.34,3.52-3.52,2.34Z"/><path class="cls-2" d="M92.18,57.93l2.34-3.52L98,56.75,95.7,60.27Z"/><path class="cls-2" d="M89.24,50.91l2.34-3.52,3.52,2.34-2.34,3.52Z"/><path class="cls-2" d="M84.57,58l2.34-3.52,3.51,2.33-2.33,3.52Z"/><path class="cls-2" d="M92.53,74.12l.28-4.36a14.85,14.85,0,0,0,3.42-.7l2,3.92L102,71.1,100,67.19A14.9,14.9,0,0,0,106.1,58l4.35.27.27-4.21-4.37-.28a14.83,14.83,0,0,0-.69-3.42l3.92-1.95-1.88-3.78-3.91,1.94a14.91,14.91,0,0,0-9.15-6.07l.27-4.36-4.21-.27-.28,4.37A14.83,14.83,0,0,0,87,41l-2-3.92-3.78,1.88,1.94,3.91A14.84,14.84,0,0,0,77.14,52l-4.37-.27-.26,4.21,4.37.28a15.38,15.38,0,0,0,.69,3.42l-3.92,1.95,1.88,3.78,3.92-1.94a14.88,14.88,0,0,0,9.14,6.08l-.27,4.36Zm-9.71-25a10.49,10.49,0,0,1,6.7-4.51,10.81,10.81,0,0,1,2.12-.21,10.58,10.58,0,1,1-8.82,4.72Z"/><path class="cls-2" d="M47.15,87.59a7.39,7.39,0,1,0-8.07,8.06,6.34,6.34,0,1,0,8.07-8.06Zm-2.08,8.1A2.12,2.12,0,0,1,43,93.57v-.06a2.11,2.11,0,0,0-2.07-2.15,1.79,1.79,0,0,0-.46,0,3.47,3.47,0,0,1-.64.06A3.16,3.16,0,1,1,43,88.3a2.7,2.7,0,0,1-.07.63,2.12,2.12,0,0,0,1.65,2.49,1.87,1.87,0,0,0,.47,0h.06a2.12,2.12,0,0,1,0,4.23Z"/><path class="cls-2" d="M101,97.8a7.41,7.41,0,0,0,7.36-6.69,6.34,6.34,0,1,0-8.06-8.06A7.39,7.39,0,0,0,101,97.8Zm0-10.56a3.39,3.39,0,0,1,.64.06,2.11,2.11,0,0,0,2.49-1.65,1.83,1.83,0,0,0,0-.47v-.06a2.12,2.12,0,1,1,2.11,2.12h-.06a2.1,2.1,0,0,0-2.11,2.53,3.17,3.17,0,1,1-3.74-2.47,3.36,3.36,0,0,1,.63-.06Z"/><path class="cls-2" d="M76.45,40.55A7.4,7.4,0,0,0,71.36,32a6.34,6.34,0,1,0-9.51,6.3,7.39,7.39,0,0,0,14.6,2.24Zm-4.14-.84a3.17,3.17,0,1,1-6-1.87,2.11,2.11,0,0,0-1.12-2.77,1.67,1.67,0,0,0-.45-.13h0a2.11,2.11,0,1,1,2.49-1.66l0,.06a2.12,2.12,0,0,0,1.6,2.53,2.4,2.4,0,0,0,.46,0,2.73,2.73,0,0,1,.64.07A3.18,3.18,0,0,1,72.31,39.71Z"/><path class="cls-2" d="M78.86,26h4.23v4.23H78.86Z"/><path class="cls-2" d="M68.3,72.45h4.23v4.23H68.3Z"/><path class="cls-2" d="M108.44,68.23h4.22v4.22h-4.22Z"/><rect class="cls-1" x="9.78" y="66.34" width="120.73" height="6.77" transform="translate(-28.47 62.17) rotate(-40.45)"/></g></g></svg>