<svg xmlns="http://www.w3.org/2000/svg" viewBox="0 0 141.5 141.5"><defs><style>.cls-1{fill:#64bf00;}.cls-2{fill:#009eff;}</style></defs><title>Biodegradable</title><g id="Capa_2" data-name="Capa 2"><g id="Layer_1" data-name="Layer 1"><path class="cls-1" d="M29.62,91.23c8.2,16.14,21.12,16.53,26.89,11.7a67.43,67.43,0,0,0,7.15,3.25,2.61,2.61,0,0,0,3.39-1.48l1-2.65a2.62,2.62,0,0,0-1.79-3.49A43.91,43.91,0,0,1,61,96.85c3.56-5.15,2.53-11.11-.8-16.5a43,43,0,0,0-9-10c-4.28-3.76-7.66-6.73-8.09-13.44a2.57,2.57,0,0,0-4.46-1.57C33.39,61.15,22,76.21,29.62,91.23Zm36,9.83a0,0,0,0,1,0,.06l-1,2.64a0,0,0,0,1-.05,0C56.2,100.5,46.42,95,43.6,86.4,48,94,57.1,98.89,65.65,101.06ZM40.54,57.14c.5,7.76,4.61,11.37,9,15.19A40,40,0,0,1,58,81.71c4.3,7,2.47,11.62.56,14.09C52,92.76,46.22,88,44.13,81.18a2,2,0,0,0-3.83.54h0c-.16,8.64,6.31,15.34,13.75,19.82-5.24,3.29-15.3,2-22.13-11.48s3.71-27.53,8.62-32.92Z"/><path class="cls-1" d="M64.61,107a3.11,3.11,0,0,1-1.19-.23,68.93,68.93,0,0,1-6.83-3.07A14,14,0,0,1,45.31,106C38.87,104.66,33.08,99.53,29,91.54h0c-7.84-15.4,3.77-30.74,9.13-36.62a3.25,3.25,0,0,1,5.64,2c.4,6.43,3.53,9.17,7.86,13A43.35,43.35,0,0,1,60.77,80c3.68,6,4.11,11.78,1.25,16.51a44.26,44.26,0,0,0,4.44,1.4,3.33,3.33,0,0,1,2.12,1.69,3.26,3.26,0,0,1,.13,2.7l-1,2.64A3.3,3.3,0,0,1,64.61,107Zm-8.18-4.92.4.21a66.74,66.74,0,0,0,7.08,3.22,1.94,1.94,0,0,0,2.51-1.1l1-2.64a1.94,1.94,0,0,0-1.33-2.59,44.73,44.73,0,0,1-5.37-1.75l-.8-.31.49-.7c3.9-5.62,1.71-11.67-.82-15.75a42.26,42.26,0,0,0-8.86-9.8C46.36,67,42.88,64,42.43,57a1.89,1.89,0,0,0-3.28-1.17C34,61.5,22.77,76.28,30.22,90.93h0c3.88,7.61,9.33,12.49,15.36,13.72a12.5,12.5,0,0,0,10.5-2.24Zm8.61,2.5-.67-.2C52.68,99.85,45.28,93.69,43,86.62l-1.81-5.54a1.28,1.28,0,0,0-.17.65c-.17,9.12,7.2,15.49,13.42,19.23l.94.57-.93.59a12,12,0,0,1-9.52,1.11c-3.73-1-9.12-4.1-13.57-12.86-7.1-14,3.73-28.21,8.72-33.69l1.07-1.18.1,1.59c.48,7.48,4.49,11,8.74,14.73a40.92,40.92,0,0,1,8.63,9.53c4.63,7.5,2.32,12.53.52,14.87l-.33.43-.49-.23c-7.78-3.62-12.9-8.82-14.8-15a1.23,1.23,0,0,0-1.4-.89,1.26,1.26,0,0,0-.84.45l2.95,5.13C47.93,92.55,56,97.91,65.82,100.41l.3.07.31.58ZM49.34,93.93c4.17,4,9.91,7,14.91,9l.54-1.37A42.42,42.42,0,0,1,49.34,93.93ZM40,58.75c-5.09,5.93-13.77,18.68-7.5,31,4.23,8.31,9.26,11.2,12.73,12.17a11,11,0,0,0,7.45-.43C44.12,96,39.49,89,39.62,81.71A2.64,2.64,0,0,1,44.78,81C47,88.13,53.25,92.5,58.35,95c1.76-2.56,2.85-6.78-.92-12.88a39.76,39.76,0,0,0-8.37-9.23C44.89,69.18,41,65.72,40,58.75Z"/><path class="cls-1" d="M80.11,51.47a41.2,41.2,0,0,1-11.85,2.66,1.29,1.29,0,0,0,.06,2.57h.06a44,44,0,0,0,12.56-2.78c5.4-1.83,9.67-3.28,15.69-.29a2.57,2.57,0,0,0,3.59-3.08c-2.37-7.44-9.7-24.85-26.54-25.75-18-1-24.88,10-23.58,17.45a67.57,67.57,0,0,0-6.39,4.56,2.62,2.62,0,0,0-.4,3.68l1.77,2.21a2.62,2.62,0,0,0,3.92.2,42.87,42.87,0,0,1,4.14-3.73,12.73,12.73,0,0,0,8.85,7,1.29,1.29,0,0,0,.62-2.51,10.09,10.09,0,0,1-7.36-6.07c5.87-4.12,12.87-6.82,19.88-5.2a2,2,0,0,0,1.45-3.58h0c-7.43-4.47-16.49-2.19-24,2-.23-6.25,6.05-14.22,21-13.42,15.2.81,22,17,24.2,23.93-7-3.45-12.15-1.7-17.64.16ZM70.87,39.33h0c-8.8,0-17.58,5.49-23.7,11.77a0,0,0,0,1-.06,0l-1.77-2.21s0,0,0-.05C52.4,43.17,62,37.48,70.87,39.33Z"/><path class="cls-1" d="M68.41,57.38a2,2,0,0,1-2-1.87,1.95,1.95,0,0,1,1.87-2.06,40.52,40.52,0,0,0,11.66-2.62l.22.64-.22-.64c5.25-1.77,10.22-3.46,16.73-.78-2.6-7.37-9.3-21.26-23.11-22C66.23,27.67,60.23,29.43,56.6,33a10.94,10.94,0,0,0-3.35,6.66c9-4.7,17.39-5.22,23.68-1.43a2.63,2.63,0,0,1-2,4.82c-7.28-1.68-14.21,1.59-18.89,4.78A9.52,9.52,0,0,0,62.77,53,1.92,1.92,0,0,1,64,53.9a2,2,0,0,1,.23,1.49,2,2,0,0,1-.9,1.21,2,2,0,0,1-1.49.22,13.43,13.43,0,0,1-8.91-6.6,43.79,43.79,0,0,0-3.42,3.15,3.35,3.35,0,0,1-2.53,1,3.3,3.3,0,0,1-2.41-1.23l-1.77-2.22a3.29,3.29,0,0,1,.51-4.63,70.41,70.41,0,0,1,6.08-4.37A14,14,0,0,1,53.06,31c4.37-4.93,11.71-7.38,20.66-6.9,17.26.92,24.73,18.64,27.15,26.22a3.24,3.24,0,0,1-4.54,3.88c-5.77-2.86-9.72-1.52-15.17.33a44.34,44.34,0,0,1-12.75,2.82ZM89.83,50c-3.33,0-6.37,1-9.5,2.09h0a41.09,41.09,0,0,1-12,2.69.6.6,0,0,0-.58.64.61.61,0,0,0,.61.59,43.43,43.43,0,0,0,12.4-2.75c5.55-1.88,9.94-3.37,16.21-.26a1.88,1.88,0,0,0,2.64-2.26c-2.32-7.31-9.51-24.41-25.92-25.28-8.54-.46-15.49,1.83-19.58,6.45a12.5,12.5,0,0,0-3.3,10.2l.08.45-.39.24a68.19,68.19,0,0,0-6.32,4.52,1.94,1.94,0,0,0-.3,2.73l1.77,2.21a1.93,1.93,0,0,0,2.9.14,48.26,48.26,0,0,1,4.2-3.78l.67-.53.37.77a12.09,12.09,0,0,0,8.4,6.63.61.61,0,0,0,.46-.07.63.63,0,0,0,.28-.38.57.57,0,0,0-.07-.46.58.58,0,0,0-.37-.28,10.81,10.81,0,0,1-7.83-6.48l-.2-.5.44-.31c7-4.93,14.09-6.76,20.43-5.29A1.24,1.24,0,0,0,76.75,41a1.3,1.3,0,0,0,0-1H70.85c-7.48,0-16.16,4.33-23.21,11.57l-.21.22-.65,0-.22-.26-2.18-2.73.52-.48C54.69,40.47,63.72,37.14,71,38.67l5.69,1.19a1.24,1.24,0,0,0-.47-.47c-8.22-5-18.17-.87-23.36,2l-1,.53,0-1.1A11.9,11.9,0,0,1,55.65,32c2.77-2.72,8.12-5.86,17.93-5.34C89.21,27.54,96.14,44,98.4,51.1l.48,1.52-1.43-.71A16.9,16.9,0,0,0,89.83,50ZM46.25,49l.93,1.15a42.23,42.23,0,0,1,14.29-9.57C55.9,42.14,50.49,45.63,46.25,49Z"/><path class="cls-1" d="M106.65,66.35a69.69,69.69,0,0,0-.76-7.82,2.63,2.63,0,0,0-3-2.19l-2.8.43A2.62,2.62,0,0,0,98,60.07a43.21,43.21,0,0,1,1.16,5.44,12.3,12.3,0,0,0-5.51.78c-3.34,1.29-6.15,4-8.37,8.16a43,43,0,0,0-4.13,12.77c-1.12,5.59-2,10-7.59,13.73a2.57,2.57,0,0,0,.86,4.65c10.39,2.27,22.68,2,30.94-4.88a1.3,1.3,0,0,0,.16-1.82,1.28,1.28,0,0,0-1.81-.16c-9.11,7.57-23.07,5.57-28.7,4.34,6.47-4.31,7.54-9.68,8.67-15.36a40.36,40.36,0,0,1,3.87-12c3.87-7.2,8.83-8,11.93-7.53.63,7.14-.53,14.55-5.45,19.81a2,2,0,0,0,2.38,3h0c7.58-4.19,10.15-13.2,10.29-21.82A11.18,11.18,0,0,1,111.58,75c2.5,6.38-.21,14-4.09,19.59A1.29,1.29,0,1,0,109.61,96c4.39-6.38,7.21-14.76,4.37-22a13.21,13.21,0,0,0-7.33-7.65ZM98.79,85.79c4.43-7.66,4-18,1.67-26.42,0,0,0,0,0,0l2.8-.43a0,0,0,0,1,0,0C104.69,67.8,104.81,79.07,98.79,85.79Z"/><path class="cls-1" d="M85.6,107.54a53.37,53.37,0,0,1-11.35-1.28,3.25,3.25,0,0,1-1.1-5.88c5.36-3.56,6.18-7.64,7.31-13.29a43.17,43.17,0,0,1,4.19-13c2.3-4.27,5.23-7.12,8.73-8.47a13,13,0,0,1,5-.87,42.54,42.54,0,0,0-1-4.54A3.3,3.3,0,0,1,100,56.1l2.8-.43a3.32,3.32,0,0,1,3.76,2.76,70.28,70.28,0,0,1,.74,7.45,14,14,0,0,1,7.31,7.88c3.64,9.28-1.89,18.91-4.44,22.63a2,2,0,0,1-2.73.51,2,2,0,0,1-.51-2.74c4.57-6.65,6.07-13.74,4-19a11.05,11.05,0,0,0-3.63-4.82c-.44,10.15-4.18,17.66-10.61,21.21a2.64,2.64,0,0,1-3.2-4.11c5.1-5.45,5.73-13.09,5.31-18.73-3.08-.24-7.3.92-10.7,7.24a39.59,39.59,0,0,0-3.81,11.86c-1.08,5.43-2.11,10.58-7.68,14.88,6.21,1.15,18.45,2.27,26.61-4.52a2,2,0,0,1,2.77.26,1.92,1.92,0,0,1,.45,1.44,2,2,0,0,1-.7,1.33C100.77,105.39,93.72,107.54,85.6,107.54Zm12.46-41.4a11.46,11.46,0,0,0-4.19.78c-3.19,1.23-5.89,3.87-8,7.85a42.31,42.31,0,0,0-4.07,12.58c-1.14,5.75-2,10.28-7.88,14.16a1.9,1.9,0,0,0,.64,3.43c12.41,2.71,23.47,1,30.35-4.74a.62.62,0,0,0,.08-.87.61.61,0,0,0-.86-.07C94.76,107,80.52,105,74.83,103.74l-1.56-.34,1.33-.88c6.24-4.16,7.28-9.39,8.39-14.93a40.31,40.31,0,0,1,3.94-12.24c4.17-7.77,9.69-8.27,12.61-7.88l.53.07.05.54c.76,8.55-1.18,15.58-5.62,20.33a1.28,1.28,0,0,0,.75,2.14l3-5.1c3.75-6.47,4.35-16.16,1.61-25.9l-.09-.29.33-.54.33-.07,3.48-.53.15.7c1.31,8.64,1.56,20.42-4.72,27.43l-3.87,4.32a1.7,1.7,0,0,0,.63-.17c8.42-4.65,9.85-15.3,10-21.23l0-1.11,1,.52a11.74,11.74,0,0,1,5.22,6.12c3.19,8.14-1.85,16.86-4.16,20.23a.58.58,0,0,0-.1.46.61.61,0,0,0,.25.39.62.62,0,0,0,.86-.16c2.42-3.53,7.7-12.69,4.29-21.37A12.52,12.52,0,0,0,106.41,67l-.42-.16,0-.45a69.14,69.14,0,0,0-.75-7.74A2,2,0,0,0,103,57l-2.8.43a1.92,1.92,0,0,0-1.57,2.44,44.81,44.81,0,0,1,1.17,5.53l.13.85-.85-.08C98.74,66.16,98.4,66.14,98.06,66.14Zm3.24-6.26a42.31,42.31,0,0,1,1.13,17.18c1.42-5.63,1.1-12.07.33-17.4Z"/><path class="cls-2" d="M70.75,0A70.75,70.75,0,1,0,141.5,70.75,70.71,70.71,0,0,0,70.75,0Zm0,137.35a66.6,66.6,0,1,1,66.6-66.6A66.67,66.67,0,0,1,70.75,137.35Z"/><path class="cls-2" d="M75.75,8.58a2.07,2.07,0,0,0-.33,4.13,58.23,58.23,0,1,1-9.34,0,2.07,2.07,0,0,0-.33-4.13,62.37,62.37,0,1,0,10,0Z"/></g></g></svg>