<svg xmlns="http://www.w3.org/2000/svg" viewBox="0 0 141.5 141.5"><defs><style>.cls-1{fill:#64bf00;}.cls-2{fill:#009eff;}</style></defs><title>Hipoalergenico</title><g id="Capa_2" data-name="Capa 2"><g id="Layer_1" data-name="Layer 1"><path class="cls-1" d="M67.45,26A246.91,246.91,0,0,1,43.73,60.53c-15.78,19.24-6.18,48.36,18,54.3a39.41,39.41,0,0,0,18.82,0A33.28,33.28,0,0,0,98.6,103.47a24,24,0,0,0,13-19.1c.1-1.07.22-2.17.36-3.29a1.94,1.94,0,0,0-3.85-.46c-.13,1.15-.26,2.28-.36,3.37A20.23,20.23,0,0,1,74.11,97.07l4.33-4.34a17.15,17.15,0,0,0,12.56,4,1.93,1.93,0,1,0-.34-3.85A13.19,13.19,0,0,1,81.2,90l5.56-5.56A14.35,14.35,0,0,0,97.09,87.6a1.94,1.94,0,0,0-.35-3.86,10.4,10.4,0,0,1-7.22-2.09L95,76.17a10.63,10.63,0,0,0,7.27,2.06,1.94,1.94,0,0,0-.35-3.86,6.63,6.63,0,0,1-4.13-1l6.1-6.1a1.93,1.93,0,1,0-2.74-2.73l-6.1,6.1a6.73,6.73,0,0,1-1-4.14,1.93,1.93,0,1,0-3.85-.34,10.53,10.53,0,0,0,2.06,7.26l-5.48,5.48a10.38,10.38,0,0,1-2.1-7.22,1.93,1.93,0,1,0-3.85-.35A14.32,14.32,0,0,0,84,81.67l-5.56,5.57a13.17,13.17,0,0,1-2.92-9.46,1.94,1.94,0,0,0-3.86-.35,17.15,17.15,0,0,0,4,12.56l-4.34,4.34c-5.94-7-6.54-15.6-3.05-22.57A20.16,20.16,0,0,1,84.45,60.68,175.85,175.85,0,0,0,113,55.44c-1,3.59-2.34,9.13-3.54,16a1.94,1.94,0,0,0,3.82.66,164.89,164.89,0,0,1,3.61-16.26,3.52,3.52,0,0,0-4.34-4.34,166.13,166.13,0,0,1-18,3.92A245.75,245.75,0,0,1,74.82,26a4.23,4.23,0,0,0-7.37,0Zm3.68,1.72a.33.33,0,0,1,.31.18,251.08,251.08,0,0,0,18.67,28.2c-2.11.28-4.23.53-6,.71A24,24,0,0,0,64.86,70c-4.16,8.32-3.47,18.74,3.77,27L63,102.7a1.94,1.94,0,0,0,2.74,2.74l5.63-5.63A24.4,24.4,0,0,0,90.49,106a30.08,30.08,0,0,1-10.87,5.12,35.8,35.8,0,0,1-17,0A29.93,29.93,0,0,1,46.73,63,251.2,251.2,0,0,0,70.82,27.92a.33.33,0,0,1,.31-.18Z"/><path class="cls-2" d="M70.75,0A70.75,70.75,0,1,0,141.5,70.75,70.71,70.71,0,0,0,70.75,0Zm0,137.35a66.6,66.6,0,1,1,66.6-66.6A66.67,66.67,0,0,1,70.75,137.35Z"/><path class="cls-2" d="M75.75,8.58a2.07,2.07,0,0,0-.33,4.13,58.23,58.23,0,1,1-9.34,0,2.07,2.07,0,0,0-.33-4.13,62.37,62.37,0,1,0,10,0Z"/></g></g></svg>