<svg xmlns="http://www.w3.org/2000/svg" viewBox="0 0 141.5 141.5"><defs><style>.cls-1{fill:#009eff;}.cls-2{fill:#64bf00;}</style></defs><title>Termoclimatico</title><g id="Capa_2" data-name="Capa 2"><g id="Layer_1" data-name="Layer 1"><path class="cls-1" d="M70.75,0A70.75,70.75,0,1,0,141.5,70.75,70.71,70.71,0,0,0,70.75,0Zm0,137.35a66.6,66.6,0,1,1,66.6-66.6A66.67,66.67,0,0,1,70.75,137.35Z"/><path class="cls-1" d="M75.75,8.58a2.07,2.07,0,0,0-.33,4.13,58.23,58.23,0,1,1-9.34,0,2.07,2.07,0,0,0-.33-4.13,62.37,62.37,0,1,0,10,0Z"/><path class="cls-2" d="M73.84,80.79V51.06a2.26,2.26,0,0,0-4.51,0V80.79a9.16,9.16,0,1,0,4.51,0ZM71.58,94.32a4.66,4.66,0,1,1,4.65-4.65A4.66,4.66,0,0,1,71.58,94.32Z"/><path class="cls-2" d="M82.77,75.34V42.08a11.19,11.19,0,0,0-22.38,0V75.34a18.18,18.18,0,1,0,22.38,0Zm-11.19,28a13.67,13.67,0,0,1-7.66-25,2.27,2.27,0,0,0,1-1.87V42.08a6.68,6.68,0,0,1,13.36,0v34.4a2.26,2.26,0,0,0,1,1.87,13.67,13.67,0,0,1-7.67,25Z"/><path class="cls-2" d="M96.52,66.88h-7a2.26,2.26,0,1,0,0,4.51h7a2.26,2.26,0,1,0,0-4.51Z"/><path class="cls-2" d="M96.52,57.86h-7a2.26,2.26,0,1,0,0,4.51h7a2.26,2.26,0,1,0,0-4.51Z"/><path class="cls-2" d="M96.52,48.84h-7a2.26,2.26,0,1,0,0,4.51h7a2.26,2.26,0,1,0,0-4.51Z"/><path class="cls-2" d="M89.54,44.33h7a2.26,2.26,0,1,0,0-4.51h-7a2.26,2.26,0,1,0,0,4.51Z"/></g></g></svg>