<svg xmlns="http://www.w3.org/2000/svg" viewBox="0 0 31.15 23.36"><defs><style>.cls-1{fill:#000098;}</style></defs><g id="Layer_2" data-name="Layer 2"><g id="Layer_1-2" data-name="Layer 1"><path id="Email" class="cls-1" d="M26.28,0H4.87A4.87,4.87,0,0,0,0,4.87V18.49a4.87,4.87,0,0,0,4.87,4.87H26.28a4.88,4.88,0,0,0,4.87-4.87V4.87A4.88,4.88,0,0,0,26.28,0ZM29.2,18.49a2.92,2.92,0,0,1-2.92,2.92H4.87A2.92,2.92,0,0,1,2,18.49V4.87A2.92,2.92,0,0,1,4.87,2H26.28A2.92,2.92,0,0,1,29.2,4.87ZM27,5.55l-6.13,6.13L27,17.8a1,1,0,1,1-1.38,1.38l-6.12-6.12-3.21,3.2a1,1,0,0,1-1.38,0l-3.2-3.2L5.55,19.18a1,1,0,0,1-.68.29,1,1,0,0,1-.69-1.67l6.12-6.12L4.18,5.55A1,1,0,0,1,5.55,4.18l10,10,10-10a1,1,0,0,1,1.38,0,1,1,0,0,1,0,1.37Z"/></g></g></svg>