<svg xmlns="http://www.w3.org/2000/svg" viewBox="0 0 26.38 26.39"><defs><style>.cls-1{fill:#000098;}</style></defs><g id="Layer_2" data-name="Layer 2"><g id="Layer_1-2" data-name="Layer 1"><path class="cls-1" d="M26.32,7.76a9.67,9.67,0,0,0-.62-3.2,6.4,6.4,0,0,0-1.52-2.34A6.48,6.48,0,0,0,21.84.7a9.48,9.48,0,0,0-3.2-.62C17.23,0,16.78,0,13.2,0s-4,0-5.44.08a9.7,9.7,0,0,0-3.2.61A6.43,6.43,0,0,0,2.22,2.22,6.53,6.53,0,0,0,.7,4.55a9.48,9.48,0,0,0-.62,3.2C0,9.17,0,9.61,0,13.2s0,4,.08,5.44a9.76,9.76,0,0,0,.61,3.2,6.64,6.64,0,0,0,1.53,2.34A6.53,6.53,0,0,0,4.55,25.7a9.76,9.76,0,0,0,3.2.61c1.41.06,1.86.08,5.44.08s4,0,5.44-.08a9.7,9.7,0,0,0,3.2-.61,6.76,6.76,0,0,0,3.86-3.86,9.73,9.73,0,0,0,.62-3.2c.06-1.41.07-1.86.07-5.44S26.38,9.17,26.32,7.76ZM23.94,18.53A7.33,7.33,0,0,1,23.49,21,4.43,4.43,0,0,1,21,23.49a7.33,7.33,0,0,1-2.45.45c-1.39.06-1.81.08-5.33.08s-3.94,0-5.33-.08a7.39,7.39,0,0,1-2.45-.45,4.13,4.13,0,0,1-1.51-1,4.09,4.09,0,0,1-1-1.51,7.45,7.45,0,0,1-.45-2.45c-.06-1.39-.08-1.81-.08-5.33s0-4,.08-5.33a7.33,7.33,0,0,1,.45-2.45,4.13,4.13,0,0,1,1-1.52,4.1,4.1,0,0,1,1.52-1,7.26,7.26,0,0,1,2.45-.46c1.39-.06,1.81-.07,5.33-.07s3.94,0,5.33.07A7.32,7.32,0,0,1,21,2.93a4,4,0,0,1,1.51,1,4.26,4.26,0,0,1,1,1.52,7.33,7.33,0,0,1,.45,2.45C24,9.27,24,9.69,24,13.21S24,17.14,23.94,18.53Z"/><path class="cls-1" d="M13.2,6.42A6.78,6.78,0,1,0,20,13.2,6.77,6.77,0,0,0,13.2,6.42Zm0,11.17a4.4,4.4,0,1,1,4.39-4.39A4.4,4.4,0,0,1,13.2,17.59Z"/><path class="cls-1" d="M21.83,6.15a1.59,1.59,0,1,1-1.59-1.58A1.59,1.59,0,0,1,21.83,6.15Z"/></g></g></svg>