<svg xmlns="http://www.w3.org/2000/svg" viewBox="0 0 156.61 52.57"><defs><style>.cls-1{fill:#fff;}</style></defs><title>Logo_Footer</title><g id="Capa_2" data-name="Capa 2"><g id="Layer_1" data-name="Layer 1"><path class="cls-1" d="M22.65.62A7.78,7.78,0,0,1,27.76,2.2,4.69,4.69,0,0,1,29.7,5.9a5,5,0,0,1-.32,1.76,3.46,3.46,0,0,1-.77,1.23,5.86,5.86,0,0,1-.88.74,5.07,5.07,0,0,1-.76.44l-.32.08v.15l.44.09a5.11,5.11,0,0,1,1,.38,6.15,6.15,0,0,1,1.32.82,4.07,4.07,0,0,1,1,1.47,5.33,5.33,0,0,1,.44,2.2,5.17,5.17,0,0,1-2.11,4.08,8.16,8.16,0,0,1-5.4,1.76H11.55A2,2,0,0,1,9.5,19.05V2.61a2,2,0,0,1,2.05-2Zm-9,16.67h9.78a3.77,3.77,0,0,0,2.4-.68,2.2,2.2,0,0,0,.83-1.82,2.47,2.47,0,0,0-.8-1.94,3.49,3.49,0,0,0-2.4-.7H13.64Zm0-8.66h9A3.29,3.29,0,0,0,24.77,8a1.92,1.92,0,0,0,.7-1.58,1.83,1.83,0,0,0-.7-1.5,3.3,3.3,0,0,0-2.09-.56h-9Z"/><path class="cls-1" d="M38.21,21.81a6.27,6.27,0,0,1-4.35-1.5,4.71,4.71,0,0,1-1.67-3.64,4.32,4.32,0,0,1,1.61-3.55,7.91,7.91,0,0,1,5-1.32h3.67c0-1.56-1.09-2.35-3.23-2.35a5.41,5.41,0,0,0-1.44.18,3,3,0,0,0-.91.35l-.26.17a2.58,2.58,0,0,1-1.61.74,1.72,1.72,0,0,1-1.24-.5,1.68,1.68,0,0,1-.5-1.23A2.78,2.78,0,0,1,34.86,7a8.1,8.1,0,0,1,4.46-1,7.74,7.74,0,0,1,5.17,1.64,5.34,5.34,0,0,1,1.9,4.23v7.75a1.88,1.88,0,0,1-1.88,1.87A2,2,0,0,1,43.17,21a1.17,1.17,0,0,1-.53-.91h-.15a3.75,3.75,0,0,1-.41.44,5,5,0,0,1-1.32.71,6.18,6.18,0,0,1-2.35.44ZM39,18.14a4.35,4.35,0,0,0,2.7-.77,2.33,2.33,0,0,0,1-1.9v-.59H39a3.75,3.75,0,0,0-2,.44,1.29,1.29,0,0,0-.64,1.14A1.31,1.31,0,0,0,37,17.61a3.75,3.75,0,0,0,2,.44Z"/><path class="cls-1" d="M55.19,21.6a7.33,7.33,0,0,1-5.28-1.94,6.42,6.42,0,0,1-2-4.84V1.91A1.83,1.83,0,0,1,48.47.59,1.83,1.83,0,0,1,49.79,0a1.8,1.8,0,0,1,1.32.56,1.83,1.83,0,0,1,.59,1.32V7.31h.14a4.87,4.87,0,0,1,.41-.44,5,5,0,0,1,1.32-.71,6.18,6.18,0,0,1,2.35-.44,6.39,6.39,0,0,1,4.7,1.94,6.48,6.48,0,0,1,1.93,4.78v2.35a6.41,6.41,0,0,1-2,4.84,7.33,7.33,0,0,1-5.28,1.94Zm0-12.27a3.56,3.56,0,0,0-2.55.88,3,3,0,0,0-.94,2.32v2.35a3,3,0,0,0,.94,2.32,4.13,4.13,0,0,0,5.1,0,3.11,3.11,0,0,0,.94-2.35V12.5a3.11,3.11,0,0,0-.94-2.35,3.57,3.57,0,0,0-2.55-.88Z"/><path class="cls-1" d="M68.65,20.28,63.07,9.13a2.55,2.55,0,0,1-.44-1.32,1.71,1.71,0,0,1,.53-1.21,1.67,1.67,0,0,1,1.2-.53,1.79,1.79,0,0,1,1.24.42,4.15,4.15,0,0,1,.82,1.2l4,8.36h.15l2.37-5.44a2,2,0,0,1,1.9-1.32A1.7,1.7,0,0,1,76,9.82a1.67,1.67,0,0,1,.53,1.2,2.57,2.57,0,0,1-.09.62c-.06.23-.09.41-.12.56l-.09.17-6.33,14A2,2,0,0,1,68,27.65a1.93,1.93,0,0,1-1.79-1.79,1.92,1.92,0,0,1,.12-.68,6,6,0,0,1,.26-.59l.09-.23Z"/><path class="cls-1" d="M11.47,52.57a11.48,11.48,0,0,1-8.29-3A10.08,10.08,0,0,1,0,41.93V21.66a2.87,2.87,0,0,1,.92-2.08A2.91,2.91,0,0,1,3,18.66a2.83,2.83,0,0,1,2.08.88A2.87,2.87,0,0,1,6,21.61v8.52h.23c.14-.18.37-.41.64-.69a7.86,7.86,0,0,1,2.08-1.1,9.53,9.53,0,0,1,3.68-.69,10,10,0,0,1,7.38,3,10.2,10.2,0,0,1,3,7.51v3.68a10.11,10.11,0,0,1-3.18,7.61,11.55,11.55,0,0,1-8.3,3Zm0-19.26a5.6,5.6,0,0,0-4,1.39A4.81,4.81,0,0,0,6,38.34V42a4.81,4.81,0,0,0,1.47,3.64,5.6,5.6,0,0,0,4,1.38,5.58,5.58,0,0,0,4-1.38A4.86,4.86,0,0,0,17,42V38.29a4.9,4.9,0,0,0-1.47-3.69,5.58,5.58,0,0,0-4-1.38Z"/><path class="cls-1" d="M33.21,52.57a9.8,9.8,0,0,1-6.82-2.35,7.34,7.34,0,0,1-2.62-5.71,6.76,6.76,0,0,1,2.53-5.57q2.55-2.09,7.88-2.08h5.76c0-2.44-1.71-3.68-5.07-3.68a8.86,8.86,0,0,0-2.26.27,5.11,5.11,0,0,0-1.43.56l-.41.27a4,4,0,0,1-2.53,1.15,2.66,2.66,0,0,1-2.72-2.71c0-1.25.83-2.4,2.44-3.46a12.78,12.78,0,0,1,7-1.61,12,12,0,0,1,8.11,2.58,8.35,8.35,0,0,1,3,6.63V49a3,3,0,0,1-3,2.95A3.16,3.16,0,0,1,41,51.28a1.87,1.87,0,0,1-.83-1.43h-.23a7.25,7.25,0,0,1-.65.7,7.57,7.57,0,0,1-2.07,1.1,9.59,9.59,0,0,1-3.69.69Zm1.24-5.76a6.83,6.83,0,0,0,4.24-1.19,3.65,3.65,0,0,0,1.52-3V41.7H34.45a5.8,5.8,0,0,0-3.17.69,2.09,2.09,0,0,0,0,3.59,5.79,5.79,0,0,0,3.17.7Z"/><path class="cls-1" d="M51.1,28.75a3.74,3.74,0,0,1,2.21.56,1.77,1.77,0,0,1,.78,1.47h.23a6.84,6.84,0,0,1,.6-.69A7.55,7.55,0,0,1,56.72,29a6.38,6.38,0,0,1,2.9-.69,9.71,9.71,0,0,1,2.58.32,6.08,6.08,0,0,1,2,.88c.51.37,1,.69,1.34,1a4.62,4.62,0,0,1,.78.83l.28.37H67l.23-.37A9.63,9.63,0,0,1,68,30.5a8.31,8.31,0,0,1,1.39-1.1,7.33,7.33,0,0,1,2.07-.83,11.33,11.33,0,0,1,2.9-.37A8.54,8.54,0,0,1,81,31.1a11,11,0,0,1,2.63,7.65V49.58a3,3,0,0,1-.83,2.12,3.13,3.13,0,0,1-4.33,0,3,3,0,0,1-.83-2.12V38.75c0-3.36-1.48-5.07-4.38-5.07A4,4,0,0,0,70,35a5.49,5.49,0,0,0-1.2,3.78V49.58A3,3,0,0,1,68,51.7a3.13,3.13,0,0,1-4.33,0,3,3,0,0,1-.83-2.12V38.75a5.44,5.44,0,0,0-1.15-3.82,4.19,4.19,0,0,0-3.22-1.25A4,4,0,0,0,55.29,35a5.44,5.44,0,0,0-1.2,3.78V49.58a3,3,0,0,1-3,3,2.88,2.88,0,0,1-2.07-.93,2.81,2.81,0,0,1-.88-2.07v-18a2.91,2.91,0,0,1,.92-2.07,2.87,2.87,0,0,1,2.08-.92Z"/><path class="cls-1" d="M96.58,52.57a11.48,11.48,0,0,1-8.29-3,10.08,10.08,0,0,1-3.18-7.6V21.66A2.87,2.87,0,0,1,86,19.58a2.91,2.91,0,0,1,2.08-.92,2.82,2.82,0,0,1,2.07.88,2.87,2.87,0,0,1,.92,2.07v8.52h.23a8.83,8.83,0,0,1,.65-.69,7.57,7.57,0,0,1,2.07-1.1,9.59,9.59,0,0,1,3.69-.69,10,10,0,0,1,7.37,3,10.2,10.2,0,0,1,3,7.51v3.68A10.11,10.11,0,0,1,105,49.49a11.52,11.52,0,0,1-8.29,3Zm0-19.26a5.56,5.56,0,0,0-4,1.39,4.78,4.78,0,0,0-1.48,3.64V42a4.78,4.78,0,0,0,1.48,3.64,6.5,6.5,0,0,0,8,0A4.87,4.87,0,0,0,102.07,42V38.29a4.91,4.91,0,0,0-1.48-3.69,5.58,5.58,0,0,0-4-1.38Z"/><path class="cls-1" d="M112.61,49.53a10.08,10.08,0,0,1-3.18-7.6V38.24a10.08,10.08,0,0,1,3.18-7.6,12.84,12.84,0,0,1,16.59,0,10.08,10.08,0,0,1,3.18,7.6v3.69a10.08,10.08,0,0,1-3.18,7.6,12.84,12.84,0,0,1-16.59,0Zm8.3-16.22a5.58,5.58,0,0,0-4,1.39,4.78,4.78,0,0,0-1.48,3.64V42a4.78,4.78,0,0,0,1.48,3.64,6.5,6.5,0,0,0,8,0A4.87,4.87,0,0,0,126.39,42V38.29a4.91,4.91,0,0,0-1.48-3.69,5.56,5.56,0,0,0-4-1.38Z"/><path class="cls-1" d="M136.84,49.53a10.08,10.08,0,0,1-3.18-7.6V38.24a10.08,10.08,0,0,1,3.18-7.6,12.84,12.84,0,0,1,16.59,0,10.08,10.08,0,0,1,3.18,7.6v3.69a10.08,10.08,0,0,1-3.18,7.6,12.84,12.84,0,0,1-16.59,0Zm8.3-16.22a5.58,5.58,0,0,0-4,1.39,4.78,4.78,0,0,0-1.48,3.64V42a4.78,4.78,0,0,0,1.48,3.64,6.5,6.5,0,0,0,8,0A4.87,4.87,0,0,0,150.62,42V38.29a4.91,4.91,0,0,0-1.48-3.69,5.56,5.56,0,0,0-4-1.38Z"/></g></g></svg>