<svg xmlns="http://www.w3.org/2000/svg" viewBox="0 0 216.54 62.33"><defs><style>.cls-1{fill:#579800;}.cls-2{fill:#64bf00;}.cls-3{fill:#b6de00;}.cls-4{fill:#009eff;}.cls-5{fill:#4cabea;}.cls-6{fill:#0df;}</style></defs><title>Recurso 1</title><g id="Capa_2" data-name="Capa 2"><g id="Layer_1" data-name="Layer 1"><path class="cls-1" d="M11.93,34.22v3A3.9,3.9,0,0,0,16.66,41l12.76-2.78a.54.54,0,0,0,.09-1L15.68,31.68A2.73,2.73,0,0,0,11.93,34.22Z"/><path class="cls-1" d="M.46,33.48c2.44.39,8.63.89,11.61-3.39a.85.85,0,0,0-.54-1.34c-2-.47-6.29-.75-11.33,3.82A.51.51,0,0,0,.46,33.48Z"/><path class="cls-1" d="M.1,19.56c1.21,2.84,4.79,9.82,11.1,10.83a.9.9,0,0,0,1-1.28C11.4,26.74,8.82,21.9.85,18.8.29,18.58-.13,19,.1,19.56Z"/><path class="cls-2" d="M14.36,43.17l30.8-6.73a3,3,0,0,1,3.63,2.92v4.55h0a2.87,2.87,0,0,1-2.26,2.79L18.21,52.87a4.54,4.54,0,0,1-5.28-3A18,18,0,0,1,12.19,47s0-.22-.09-.65A2.9,2.9,0,0,1,14.36,43.17Z"/><path class="cls-3" d="M18.73,54.42a1.79,1.79,0,0,0-.84,3.06,18.38,18.38,0,0,0,12.47,4.85h0a18.42,18.42,0,0,0,16.7-10.62,2.11,2.11,0,0,0-2.35-3Z"/><path class="cls-4" d="M35.43,20.56c-1-.54-1.83.16-2.91.51a8,8,0,0,1-2,.39h-.26a8,8,0,0,1-2-.39c-1.08-.35-1.92-1.05-2.92-.51A1.65,1.65,0,0,0,24.57,23a6.85,6.85,0,0,0,2.68,2.76,3.12,3.12,0,0,0,6.22,0A6.83,6.83,0,0,0,36.14,23,1.64,1.64,0,0,0,35.43,20.56Zm-5.07,6.32a1.34,1.34,0,1,1,1.33-1.33A1.33,1.33,0,0,1,30.36,26.88Z"/><path class="cls-4" d="M26.11,17.7v.21a.92.92,0,0,0,1.84,0V17.7a3.31,3.31,0,0,0-6.61,0v.21a.92.92,0,0,0,1.84,0V17.7a1.47,1.47,0,0,1,2.93,0Z"/><path class="cls-4" d="M36.07,14.4a3.31,3.31,0,0,0-3.31,3.3v.21a.92.92,0,0,0,1.84,0V17.7a1.47,1.47,0,0,1,2.94,0v.21a.92.92,0,1,0,1.83,0V17.7A3.3,3.3,0,0,0,36.07,14.4Z"/><path class="cls-4" d="M30.36,0h0A18.43,18.43,0,0,0,11.93,18.43v5.26a7,7,0,0,0,4.4,6.51L32,36.45a6.87,6.87,0,0,0,4,.33l8.57-1.87a5.35,5.35,0,0,0,4.21-5.22V18.43A18.43,18.43,0,0,0,30.36,0ZM42.48,21.83h-.13a12.51,12.51,0,0,1-24,0h-.14a2.29,2.29,0,0,1-.35-4.55,12.51,12.51,0,0,1,6-9.75,2.78,2.78,0,0,1,3.62.63,3.84,3.84,0,0,0,4.6,1.29,2.8,2.8,0,0,0,1.73-1.79.33.33,0,0,0-.53-.34,2.13,2.13,0,0,1-.64.41,1.84,1.84,0,0,1-2.41-1.28h0a.58.58,0,0,1,.58-.71,12.51,12.51,0,0,1,12,11.55,2.29,2.29,0,0,1-.35,4.55Z"/><path class="cls-5" d="M52,7.9a2.07,2.07,0,0,1-.64,1.52,2.39,2.39,0,0,1-3.19,0,2,2,0,0,1-.64-1.52,2,2,0,0,1,.64-1.52,2.23,2.23,0,0,1,1.6-.62,2.19,2.19,0,0,1,1.6.62A2,2,0,0,1,52,7.89Zm-3.88,0A1.55,1.55,0,0,0,48.55,9a1.58,1.58,0,0,0,1.17.47A1.61,1.61,0,0,0,50.89,9a1.57,1.57,0,0,0,.49-1.15,1.56,1.56,0,0,0-.49-1.15,1.67,1.67,0,0,0-2.34,0,1.55,1.55,0,0,0-.48,1.15ZM49.84,7a.8.8,0,0,1,.53.17.5.5,0,0,1,.2.41.5.5,0,0,1-.08.27.52.52,0,0,1-.18.16l-.08,0v0l.29.34a.28.28,0,0,1,.07.21c0,.14-.06.2-.19.2a.28.28,0,0,1-.24-.15l-.41-.51h-.32v.42a.24.24,0,0,1-.07.17.24.24,0,0,1-.17.06A.24.24,0,0,1,49,8.76.28.28,0,0,1,49,8.58V7.25A.21.21,0,0,1,49,7.07.24.24,0,0,1,49.19,7Zm-.41.39v.39h.42A.24.24,0,0,0,50,7.73a.19.19,0,0,0,.07-.13A.19.19,0,0,0,50,7.46a.24.24,0,0,0-.17-.06Z"/><path class="cls-6" d="M82.58,5.5a7.84,7.84,0,0,1,5.11,1.58,4.69,4.69,0,0,1,1.94,3.7,4.75,4.75,0,0,1-.33,1.76,3.45,3.45,0,0,1-.76,1.23,6.4,6.4,0,0,1-.88.74,5.07,5.07,0,0,1-.76.44l-.32.08v.15l.44.09a5.11,5.11,0,0,1,1,.38,6.15,6.15,0,0,1,1.32.82,4.19,4.19,0,0,1,1,1.47,5.33,5.33,0,0,1,.44,2.2,5.17,5.17,0,0,1-2.11,4.08A8.16,8.16,0,0,1,83.32,26H71.48a2,2,0,0,1-2-2.05V7.49a2,2,0,0,1,2-2Zm-9,16.67h9.78a3.77,3.77,0,0,0,2.4-.68,2.2,2.2,0,0,0,.83-1.82,2.47,2.47,0,0,0-.8-1.94,3.54,3.54,0,0,0-2.4-.7H73.57Zm0-8.66h9a3.29,3.29,0,0,0,2.09-.59,1.92,1.92,0,0,0,.7-1.58,1.83,1.83,0,0,0-.7-1.5,3.3,3.3,0,0,0-2.09-.56h-9Z"/><path class="cls-6" d="M98.13,26.69a6.24,6.24,0,0,1-4.34-1.5,4.71,4.71,0,0,1-1.67-3.64A4.32,4.32,0,0,1,93.73,18a7.91,7.91,0,0,1,5-1.32h3.67c0-1.56-1.09-2.35-3.23-2.35a5.41,5.41,0,0,0-1.44.18,3,3,0,0,0-.91.35l-.26.17a2.58,2.58,0,0,1-1.62.74,1.71,1.71,0,0,1-1.23-.5,1.68,1.68,0,0,1-.5-1.23,2.78,2.78,0,0,1,1.56-2.2,8.1,8.1,0,0,1,4.46-1,7.69,7.69,0,0,1,5.16,1.64,5.32,5.32,0,0,1,1.91,4.23v7.75a1.81,1.81,0,0,1-.55,1.32,1.83,1.83,0,0,1-1.33.55,2,2,0,0,1-1.35-.44,1.18,1.18,0,0,1-.52-.91h-.15a4.87,4.87,0,0,1-.41.44,4.72,4.72,0,0,1-1.32.71,6.18,6.18,0,0,1-2.35.44Zm.8-3.67a4.35,4.35,0,0,0,2.7-.77,2.32,2.32,0,0,0,1-1.9v-.59H98.93a3.75,3.75,0,0,0-2,.44,1.34,1.34,0,0,0,0,2.29,3.75,3.75,0,0,0,2,.44Z"/><path class="cls-6" d="M115.12,26.48a7.31,7.31,0,0,1-5.28-1.94,6.42,6.42,0,0,1-2-4.84V6.79a1.83,1.83,0,0,1,.59-1.32,1.83,1.83,0,0,1,1.32-.59,1.8,1.8,0,0,1,1.32.56,1.83,1.83,0,0,1,.59,1.32v5.43h.14a4.87,4.87,0,0,1,.41-.44A5,5,0,0,1,113.5,11a6.18,6.18,0,0,1,2.35-.44,6.39,6.39,0,0,1,4.7,1.94,6.48,6.48,0,0,1,1.93,4.78v2.35a6.41,6.41,0,0,1-2,4.84,7.29,7.29,0,0,1-5.28,1.94Zm0-12.27a3.6,3.6,0,0,0-2.56.88,3.07,3.07,0,0,0-.93,2.32v2.35a3.07,3.07,0,0,0,.93,2.32,4.15,4.15,0,0,0,5.11,0,3.11,3.11,0,0,0,.94-2.35V17.38a3.11,3.11,0,0,0-.94-2.35,3.59,3.59,0,0,0-2.55-.88Z"/><path class="cls-6" d="M128.58,25.16,123,14a2.55,2.55,0,0,1-.44-1.32,1.71,1.71,0,0,1,.53-1.21,1.66,1.66,0,0,1,1.2-.52,1.78,1.78,0,0,1,1.24.41,4.15,4.15,0,0,1,.82,1.2l4,8.36h.15l2.37-5.44a2,2,0,0,1,1.9-1.32,1.71,1.71,0,0,1,1.21.53,1.67,1.67,0,0,1,.53,1.2,2.5,2.5,0,0,1-.09.62c-.06.24-.09.41-.12.56l-.09.17-6.33,14a2,2,0,0,1-1.91,1.32,1.93,1.93,0,0,1-1.79-1.79,1.92,1.92,0,0,1,.12-.68,4.27,4.27,0,0,1,.26-.59l.09-.23Z"/><path class="cls-4" d="M71.4,57.45a11.48,11.48,0,0,1-8.29-3,10.08,10.08,0,0,1-3.18-7.6V26.54a2.83,2.83,0,0,1,.92-2.07,2.88,2.88,0,0,1,2.07-.93,2.83,2.83,0,0,1,2.08.88,2.87,2.87,0,0,1,.92,2.07V35h.23a8.4,8.4,0,0,1,.64-.7,7.86,7.86,0,0,1,2.08-1.1,9.53,9.53,0,0,1,3.68-.69,10,10,0,0,1,7.37,3,10.17,10.17,0,0,1,3,7.51v3.68a10.09,10.09,0,0,1-3.18,7.61,11.55,11.55,0,0,1-8.3,3Zm0-19.26a5.6,5.6,0,0,0-4,1.39,4.81,4.81,0,0,0-1.47,3.64V46.9a4.81,4.81,0,0,0,1.47,3.64,6.52,6.52,0,0,0,8,0,4.86,4.86,0,0,0,1.47-3.68V43.17a4.9,4.9,0,0,0-1.47-3.69,5.58,5.58,0,0,0-4-1.38Z"/><path class="cls-4" d="M93.14,57.45a9.8,9.8,0,0,1-6.82-2.35,7.34,7.34,0,0,1-2.62-5.71,6.74,6.74,0,0,1,2.53-5.57q2.55-2.09,7.88-2.08h5.76c0-2.44-1.71-3.68-5.07-3.68a8.86,8.86,0,0,0-2.26.27,5.11,5.11,0,0,0-1.43.56l-.41.27a4,4,0,0,1-2.54,1.15,2.66,2.66,0,0,1-2.71-2.71c0-1.25.83-2.4,2.44-3.46a12.78,12.78,0,0,1,7-1.61A12,12,0,0,1,103,35.11a8.34,8.34,0,0,1,3,6.63V53.91a3,3,0,0,1-2.94,2.94,3.16,3.16,0,0,1-2.12-.69,1.87,1.87,0,0,1-.83-1.43h-.23a7.25,7.25,0,0,1-.65.7,7.74,7.74,0,0,1-2.07,1.1,9.59,9.59,0,0,1-3.69.69Zm1.24-5.76a6.83,6.83,0,0,0,4.24-1.19,3.65,3.65,0,0,0,1.52-3v-.92H94.38a5.8,5.8,0,0,0-3.17.69,2.09,2.09,0,0,0,0,3.59,5.71,5.71,0,0,0,3.17.7Z"/><path class="cls-4" d="M111,33.63a3.75,3.75,0,0,1,2.22.56,1.77,1.77,0,0,1,.78,1.47h.23a6.84,6.84,0,0,1,.6-.69,7.34,7.34,0,0,1,1.8-1.11,6.38,6.38,0,0,1,2.9-.69,9.32,9.32,0,0,1,2.58.33,6.08,6.08,0,0,1,2,.87c.51.37,1,.69,1.33,1a4.4,4.4,0,0,1,.79.83l.27.37h.42l.23-.37c.09-.13.37-.41.78-.83a8.66,8.66,0,0,1,1.38-1.1,7.53,7.53,0,0,1,2.08-.83,11.33,11.33,0,0,1,2.9-.37,8.54,8.54,0,0,1,6.59,2.9,11,11,0,0,1,2.63,7.65V54.46a3,3,0,0,1-.83,2.12,3.13,3.13,0,0,1-4.33,0,3,3,0,0,1-.83-2.12V43.63c0-3.36-1.48-5.07-4.38-5.07A4,4,0,0,0,130,39.85a5.49,5.49,0,0,0-1.2,3.78V54.46a3,3,0,0,1-.83,2.12,3.13,3.13,0,0,1-4.33,0,3,3,0,0,1-.83-2.12V43.63a5.44,5.44,0,0,0-1.15-3.82,4.19,4.19,0,0,0-3.22-1.25,4,4,0,0,0-3.18,1.29,5.44,5.44,0,0,0-1.2,3.78V54.46a3,3,0,0,1-3,2.95,2.91,2.91,0,0,1-2.07-.92,2.83,2.83,0,0,1-.88-2.08v-18a3.15,3.15,0,0,1,3-3Z"/><path class="cls-4" d="M156.51,57.45a11.48,11.48,0,0,1-8.29-3,10.08,10.08,0,0,1-3.18-7.6V26.54a2.83,2.83,0,0,1,.92-2.07,2.88,2.88,0,0,1,2.08-.93,2.82,2.82,0,0,1,2.07.88,2.87,2.87,0,0,1,.92,2.07V35h.23a7.25,7.25,0,0,1,.65-.7,7.57,7.57,0,0,1,2.07-1.1,9.59,9.59,0,0,1,3.69-.69,10,10,0,0,1,7.37,3,10.2,10.2,0,0,1,3,7.51v3.68a10.09,10.09,0,0,1-3.18,7.61,11.54,11.54,0,0,1-8.29,3Zm0-19.26a5.56,5.56,0,0,0-4,1.39A4.78,4.78,0,0,0,151,43.22V46.9a4.78,4.78,0,0,0,1.48,3.64,6.5,6.5,0,0,0,8,0A4.87,4.87,0,0,0,162,46.86V43.17a4.91,4.91,0,0,0-1.48-3.69,5.58,5.58,0,0,0-4-1.38Z"/><path class="cls-4" d="M172.54,54.41a10.07,10.07,0,0,1-3.18-7.6V43.12a10.08,10.08,0,0,1,3.18-7.6,12.84,12.84,0,0,1,16.59,0,10.08,10.08,0,0,1,3.18,7.6v3.69a10.07,10.07,0,0,1-3.18,7.6,12.84,12.84,0,0,1-16.59,0Zm8.3-16.21a5.56,5.56,0,0,0-4,1.38,4.78,4.78,0,0,0-1.48,3.64V46.9a4.78,4.78,0,0,0,1.48,3.64,6.5,6.5,0,0,0,8,0,4.87,4.87,0,0,0,1.48-3.68V43.17a4.87,4.87,0,0,0-1.48-3.68,5.52,5.52,0,0,0-4-1.39Z"/><path class="cls-4" d="M196.77,54.41a10.07,10.07,0,0,1-3.18-7.6V43.12a10.08,10.08,0,0,1,3.18-7.6,12.84,12.84,0,0,1,16.59,0,10.08,10.08,0,0,1,3.18,7.6v3.69a10.07,10.07,0,0,1-3.18,7.6,12.84,12.84,0,0,1-16.59,0Zm8.3-16.21a5.56,5.56,0,0,0-4,1.38,4.78,4.78,0,0,0-1.48,3.64V46.9a4.78,4.78,0,0,0,1.48,3.64,6.5,6.5,0,0,0,8,0,4.87,4.87,0,0,0,1.48-3.68V43.17a4.87,4.87,0,0,0-1.48-3.68,5.52,5.52,0,0,0-4-1.39Z"/></g></g></svg>