<svg xmlns="http://www.w3.org/2000/svg" viewBox="0 0 1470.51 576.56"><defs><style>.cls-1{fill:#009eff;}</style></defs><g id="Layer_2" data-name="Layer 2"><g id="Layer_1-2" data-name="Layer 1"><path class="cls-1" d="M712,393.32c14.31-7.48,12.24-30.53,4.54-45.27S691,327.41,676.7,334.88s-19.68,25.5-12,40.24S697.71,400.8,712,393.32Z"/><path class="cls-1" d="M1470.51,576.56V0c-191.9,7.24-246.21,510.52-420,336.73S851.36,304.14,742.74,420s-282.42,90.51-481.56,39.82C143.64,429.91,53.85,461.81,0,493v83.59Z"/><path class="cls-1" d="M594.61,404c8.93,2.85,22.06-2.26,24.91-11.19a17,17,0,0,0-32.34-10.32C584.33,391.4,585.68,401.13,594.61,404Z"/></g></g></svg>