<svg xmlns="http://www.w3.org/2000/svg" viewBox="0 0 39.89 39.89"><defs><style>.cls-1{fill:#1bd741;}.cls-2{fill:#fff;}</style></defs><g id="Layer_2" data-name="Layer 2"><g id="Layer_1-2" data-name="Layer 1"><rect class="cls-1" width="39.89" height="39.89" rx="11.32"/><path class="cls-2" d="M6.28,33.35l2-6.94a13.94,13.94,0,1,1,12,6.87,13.82,13.82,0,0,1-6.81-1.78ZM13.8,29l.43.26a11.59,11.59,0,1,0-3.72-3.64l.28.45L9.67,30Z"/><path class="cls-2" d="M16.33,12.86l-.9,0a1.13,1.13,0,0,0-.78.27,4.09,4.09,0,0,0-1.35,2.07,6.29,6.29,0,0,0,1.46,4.94,14.6,14.6,0,0,0,7.9,5.74,3.85,3.85,0,0,0,3.27-.4,2.93,2.93,0,0,0,1.27-1.85l.14-.68a.46.46,0,0,0-.26-.52L24,21a.48.48,0,0,0-.57.14l-1.2,1.56a.36.36,0,0,1-.39.11,9.4,9.4,0,0,1-5.08-4.35.35.35,0,0,1,0-.39L18,16.72a.47.47,0,0,0,.08-.49l-1.32-3.08A.47.47,0,0,0,16.33,12.86Z"/></g></g></svg>