<svg xmlns="http://www.w3.org/2000/svg" viewBox="0 0 31.93 23.07"><defs><style>.cls-1{fill:#000098;}</style></defs><g id="Layer_2" data-name="Layer 2"><g id="Layer_1-2" data-name="Layer 1"><path class="cls-1" d="M16,23.07h0c-1,0-9.49-.08-11.9-.73A4.94,4.94,0,0,1,.59,18.87,36.76,36.76,0,0,1,0,11.57,37.38,37.38,0,0,1,.59,4.21h0A5.05,5.05,0,0,1,4.06.71h0C6.46.08,15,0,16,0h0c1,0,9.51.08,11.9.74A5,5,0,0,1,31.34,4.2a36.06,36.06,0,0,1,.59,7.4,36.54,36.54,0,0,1-.59,7.28h0a4.94,4.94,0,0,1-3.48,3.47h0c-2.39.63-10.92.71-11.89.71ZM3,4.85a35.24,35.24,0,0,0-.5,6.7v0A33.31,33.31,0,0,0,3,18.22a2.44,2.44,0,0,0,1.71,1.71c1.78.48,8.72.63,11.25.65s9.49-.17,11.26-.63a2.44,2.44,0,0,0,1.71-1.7,33.52,33.52,0,0,0,.5-6.64v0a32.48,32.48,0,0,0-.5-6.71h0a2.4,2.4,0,0,0-1.71-1.71c-1.77-.49-8.71-.64-11.26-.66s-9.48.17-11.25.63A2.5,2.5,0,0,0,3,4.85ZM30.13,18.57h0Zm-17.35-2V6.49l8.74,5Z"/></g></g></svg>