<svg xmlns="http://www.w3.org/2000/svg" viewBox="0 0 147.66 53.19"><defs><style>.cls-1{fill:#009eff;}.cls-2{fill:#fcaf17;}.cls-2,.cls-3{fill-rule:evenodd;}.cls-3{fill:#231f20;}</style></defs><g id="Layer_2" data-name="Layer 2"><g id="Layer_1-2" data-name="Layer 1"><path class="cls-1" d="M121.06,53.19H26.6A26.6,26.6,0,1,1,26.6,0h94.46a26.6,26.6,0,1,1,0,53.19ZM26.6,2a24.6,24.6,0,1,0,0,49.19h94.46a24.6,24.6,0,1,0,0-49.19Z"/><path class="cls-2" d="M86.51,37.26c-5.64,4.16-13.81,6.37-20.84,6.37A37.71,37.71,0,0,1,40.2,33.92c-.52-.48-.05-1.13.58-.76a51.25,51.25,0,0,0,25.48,6.76,50.71,50.71,0,0,0,19.43-4c1-.4,1.75.63.82,1.32"/><path class="cls-2" d="M88.85,34.58c-.72-.92-4.76-.43-6.58-.22-.55.07-.63-.41-.14-.76,3.23-2.27,8.51-1.61,9.13-.85s-.16,6.06-3.19,8.59c-.46.39-.9.18-.7-.33.68-1.7,2.21-5.5,1.48-6.43"/><path class="cls-3" d="M82.4,17.59v-2.2a.54.54,0,0,1,.56-.56h9.87a.55.55,0,0,1,.56.56v1.89a3,3,0,0,1-.74,1.38L87.54,26a11,11,0,0,1,5.63,1.21,1,1,0,0,1,.52.86v2.35c0,.32-.35.7-.72.5a11.39,11.39,0,0,0-10.43,0c-.34.18-.7-.19-.7-.51V28.16a2.67,2.67,0,0,1,.36-1.52l5.93-8.49H83a.55.55,0,0,1-.57-.56"/><path class="cls-3" d="M46.4,31.34h-3a.56.56,0,0,1-.54-.5V15.43a.57.57,0,0,1,.59-.56h2.79a.58.58,0,0,1,.55.52v2h.05a4,4,0,0,1,3.95-2.85c1.88,0,3.06.91,3.9,2.85a4.43,4.43,0,0,1,7.62-1.16c.95,1.29.76,3.17.76,4.83v9.72a.56.56,0,0,1-.58.55h-3a.55.55,0,0,1-.54-.55V22.62a19.64,19.64,0,0,0-.08-2.88,1.57,1.57,0,0,0-1.77-1.33,2,2,0,0,0-1.79,1.26A9.29,9.29,0,0,0,55,22.62v8.17a.56.56,0,0,1-.58.55h-3a.55.55,0,0,1-.54-.55V22.62c0-1.72.28-4.25-1.85-4.25S47,20.84,47,22.62v8.17a.56.56,0,0,1-.58.55"/><path class="cls-3" d="M101.89,14.55c4.46,0,6.87,3.83,6.87,8.69,0,4.7-2.67,8.43-6.87,8.43-4.37,0-6.75-3.83-6.75-8.59s2.41-8.53,6.75-8.53m0,3.14c-2.22,0-2.36,3-2.36,4.9s0,5.9,2.33,5.9,2.44-3.24,2.44-5.22a14.28,14.28,0,0,0-.45-4.08,1.89,1.89,0,0,0-2-1.5"/><path class="cls-3" d="M114.54,31.34h-3a.55.55,0,0,1-.54-.55V15.38a.58.58,0,0,1,.58-.51h2.78a.59.59,0,0,1,.54.43v2.36h0c.84-2.11,2-3.11,4.09-3.11a3.94,3.94,0,0,1,3.51,1.82c.78,1.23.78,3.3.78,4.79v9.7a.56.56,0,0,1-.57.48h-3a.56.56,0,0,1-.54-.48V22.49c0-1.68.2-4.15-1.88-4.15a2,2,0,0,0-1.73,1.23,6.86,6.86,0,0,0-.48,2.92v8.3a.57.57,0,0,1-.58.55"/><path class="cls-3" d="M74.53,24A5.89,5.89,0,0,1,74,27.17a2.44,2.44,0,0,1-2.08,1.36c-1.15,0-1.82-.87-1.82-2.17,0-2.56,2.29-3,4.46-3Zm3,7.33a.62.62,0,0,1-.71.06,7.33,7.33,0,0,1-1.72-2,6,6,0,0,1-4.95,2.18c-2.53,0-4.49-1.56-4.49-4.68A5.11,5.11,0,0,1,68.89,22a21.12,21.12,0,0,1,5.64-1v-.39a3.83,3.83,0,0,0-.36-2.17,2,2,0,0,0-1.69-.79,2.29,2.29,0,0,0-2.41,1.81.63.63,0,0,1-.52.55l-2.91-.32a.52.52,0,0,1-.45-.62c.67-3.53,3.86-4.6,6.71-4.6a6.81,6.81,0,0,1,4.52,1.49c1.47,1.37,1.33,3.19,1.33,5.17v4.68a4.08,4.08,0,0,0,1.13,2.78.57.57,0,0,1,0,.8c-.61.51-1.7,1.46-2.3,2Z"/><path class="cls-3" d="M35.18,24a5.89,5.89,0,0,1-.57,3.19,2.42,2.42,0,0,1-2.07,1.36c-1.16,0-1.83-.87-1.83-2.17,0-2.56,2.3-3,4.47-3Zm3,7.33a.62.62,0,0,1-.71.06,7.52,7.52,0,0,1-1.72-2,6,6,0,0,1-5,2.18c-2.52,0-4.49-1.56-4.49-4.68A5.11,5.11,0,0,1,29.53,22a21.19,21.19,0,0,1,5.65-1v-.39a3.83,3.83,0,0,0-.37-2.17,2,2,0,0,0-1.69-.79,2.29,2.29,0,0,0-2.41,1.81.63.63,0,0,1-.52.55l-2.91-.32a.53.53,0,0,1-.45-.62c.67-3.53,3.86-4.6,6.72-4.6a6.83,6.83,0,0,1,4.52,1.49c1.46,1.37,1.32,3.19,1.32,5.17v4.68a4.08,4.08,0,0,0,1.13,2.78.57.57,0,0,1,0,.8c-.61.51-1.7,1.46-2.3,2Z"/></g></g></svg>