<svg xmlns="http://www.w3.org/2000/svg" viewBox="0 0 10.17 18.86"><defs><style>.cls-1{fill:#0df;}</style></defs><g id="Layer_2" data-name="Layer 2"><g id="Layer_1-2" data-name="Layer 1"><g id="_01._Facebook" data-name="01. Facebook"><path id="Icon" class="cls-1" d="M2.83,10.64H.5c-.38,0-.5-.14-.5-.49V7.29c0-.37.14-.49.5-.49H2.83V4.72a5.3,5.3,0,0,1,.64-2.67A3.9,3.9,0,0,1,5.57.31,5.09,5.09,0,0,1,7.39,0H9.7c.33,0,.47.14.47.47V3.16c0,.33-.14.47-.47.47-.64,0-1.27,0-1.91,0a.85.85,0,0,0-1,1c0,.7,0,1.39,0,2.12H9.56c.38,0,.52.14.52.52v2.86c0,.37-.12.49-.52.49H6.82v7.7c0,.4-.12.54-.54.54H3.33c-.36,0-.5-.14-.5-.5V10.64Z"/></g></g></g></svg>