<svg xmlns="http://www.w3.org/2000/svg" viewBox="0 0 20.02 20.02"><defs><style>.cls-1{fill:#0df;}</style></defs><g id="Layer_2" data-name="Layer 2"><g id="Layer_1-2" data-name="Layer 1"><path class="cls-1" d="M20,5.89a7.24,7.24,0,0,0-.47-2.43,4.88,4.88,0,0,0-1.15-1.78A5,5,0,0,0,16.57.53,7.24,7.24,0,0,0,14.14.06C13.07,0,12.73,0,10,0S7,0,5.89.06A7.53,7.53,0,0,0,3.46.52,5,5,0,0,0,1.68,1.68,4.92,4.92,0,0,0,.53,3.45,7.35,7.35,0,0,0,.06,5.88C0,7,0,7.3,0,10s0,3.06.06,4.13a7.59,7.59,0,0,0,.46,2.43,5.13,5.13,0,0,0,1.16,1.78A5.06,5.06,0,0,0,3.45,19.5,7.13,7.13,0,0,0,5.88,20C7,20,7.29,20,10,20s3.06,0,4.13-.06a7.13,7.13,0,0,0,2.43-.46,5.12,5.12,0,0,0,2.93-2.93A7.65,7.65,0,0,0,20,14.14C20,13.07,20,12.73,20,10S20,7,20,5.89Zm-1.8,8.17a5.54,5.54,0,0,1-.35,1.86,3.35,3.35,0,0,1-1.9,1.9,5.54,5.54,0,0,1-1.86.35c-1.05,0-1.37,0-4,0s-3,0-4,0a5.66,5.66,0,0,1-1.86-.35A3,3,0,0,1,3,17.07a3,3,0,0,1-.75-1.15,5.52,5.52,0,0,1-.35-1.85c0-1.06-.05-1.38-.05-4.05s0-3,.05-4a5.54,5.54,0,0,1,.35-1.86A3,3,0,0,1,3,3a3.06,3.06,0,0,1,1.15-.75A5.35,5.35,0,0,1,6,1.88c1,0,1.37-.06,4-.06s3,0,4.05.06a5.34,5.34,0,0,1,1.85.34A3.06,3.06,0,0,1,17.07,3a3,3,0,0,1,.75,1.15A5.54,5.54,0,0,1,18.17,6c0,1,0,1.37,0,4S18.21,13,18.17,14.06Z"/><path class="cls-1" d="M10,4.87A5.15,5.15,0,1,0,15.16,10,5.14,5.14,0,0,0,10,4.87Zm0,8.48A3.34,3.34,0,1,1,13.35,10,3.33,3.33,0,0,1,10,13.35Z"/><path class="cls-1" d="M16.56,4.67a1.2,1.2,0,1,1-1.2-1.2A1.2,1.2,0,0,1,16.56,4.67Z"/></g></g></svg>