<svg xmlns="http://www.w3.org/2000/svg" viewBox="0 0 483.27 282.78"><defs><style>.cls-1{fill:#0015ac;}</style></defs><title>Recurso 1</title><g id="Capa_2" data-name="Capa 2"><g id="Layer_1" data-name="Layer 1"><path class="cls-1" d="M33.33,224.17c-5-9.59-1.53-21.31,7.78-26.17S62,197,67,206.56s6.35,24.58-3,29.44S38.34,233.76,33.33,224.17Z"/><path class="cls-1" d="M14.74,229.44a11,11,0,0,1,7.16,13.87c-1.85,5.8-10.39,9.13-16.2,7.27S-1,242.4.87,236.59A11,11,0,0,1,14.74,229.44Z"/><path class="cls-1" d="M483.27.55c-16.68-1.66-32.61.41-45.81,6.23C369.75,36.61,403.75,89,277.06,56.62S174.51,148.54,162.91,209.06s-49.36,36.08-105.12,37.31c-30.62.68-40.58,19.54-43.35,36.41H483.27Z"/></g></g></svg>