<svg xmlns="http://www.w3.org/2000/svg" viewBox="0 0 147.66 53.19"><defs><style>.cls-1{fill:#009eff;}.cls-2{fill:#1c3185;}.cls-3{fill:#ffe000;}.cls-4{fill:#fff;}</style></defs><g id="Layer_2" data-name="Layer 2"><g id="Layer_1-2" data-name="Layer 1"><path class="cls-1" d="M121.06,53.19H26.6A26.6,26.6,0,1,1,26.6,0h94.46a26.6,26.6,0,1,1,0,53.19ZM26.6,2a24.6,24.6,0,1,0,0,49.19h94.46a24.6,24.6,0,1,0,0-49.19Z"/><path class="cls-2" d="M57.47,26.85v.84c0,8.4-8.53,15.21-22,15.21-10.36,0-17.86-4.08-20.71-9.82a12,12,0,0,1-1.28-5.39c0-.07,0-.64,0-.84s0-.4,0-.6c.23-3.72,2.63-7.08,6.4-9.55a24.64,24.64,0,0,1,6.7-3,32.15,32.15,0,0,1,8.86-1.21C47.62,12.47,57.47,18.92,57.47,26.85Z"/><path class="cls-3" d="M56.62,26.84c0,7.47-9.46,13.52-21.14,13.52-8.13,0-15.19-2.94-18.72-7.24A9.83,9.83,0,0,1,14.35,27v-.11c0-4.16,2.93-7.88,7.55-10.36.27-.15.55-.29.83-.42s.88-.42,1.34-.61c.78-.32,1.59-.6,2.43-.86a31.32,31.32,0,0,1,9-1.27C47.16,13.32,56.62,19.37,56.62,26.84Z"/><path class="cls-2" d="M35.59,31.71a2.3,2.3,0,0,1-2.21,2.46,57.49,57.49,0,0,1-6.5.48,35,35,0,0,1-6.21-.41c-1.23-.17-2.52-.53-2.86-.53s-.52.19-1,.8a11.32,11.32,0,0,1-2-1.28,12.14,12.14,0,0,1-1.3-5.47c0-.07,0-.65,0-.85s0-.41,0-.61A17.06,17.06,0,0,1,16.39,26a18.56,18.56,0,0,1,6.89,1c3,.87,4.28,1.42,4.28,1.42A14.84,14.84,0,0,1,27.29,24,11.13,11.13,0,0,0,27,20.12a21.42,21.42,0,0,0-.77-2.05,7.51,7.51,0,0,1-.93.06,4.8,4.8,0,0,1-2.14-.57,9.66,9.66,0,0,0-2.63-.8,2.6,2.6,0,0,1-.47-.15,1,1,0,0,1-.53-1.44,1.13,1.13,0,0,1,1-.52.94.94,0,0,1-.24-.75,2.27,2.27,0,0,1,1.06-1.36c.47-.34,1.09-.78,1.7-1.18a1.45,1.45,0,0,1,1.58,0,16.65,16.65,0,0,1,1.34,1.26c.24.24.57.56.93.93a25.71,25.71,0,0,1,2.29,2.58,22.83,22.83,0,0,1,2.43,4.59c.63,1.53,2.28,5.22,2.74,6.31A12.22,12.22,0,0,1,35.59,31.71Z"/><path class="cls-4" d="M34.58,32.73c-.56.63-1.38.82-2.79.91-1.22.07-3.39.27-4.48.26s-2.29,0-4.45-.21c-3.58-.33-4.25-.77-5.07-.78a1.45,1.45,0,0,0-1,.36A10.06,10.06,0,0,1,14.36,27a20.39,20.39,0,0,1,8,.52,24.72,24.72,0,0,1,6.53,2.39,6.68,6.68,0,0,1-.65-2.65c-.14-1.77,0-5-.26-6.4a10.22,10.22,0,0,0-1.16-3.18c-.4-.49-.95-.26-1.4-.26a6.54,6.54,0,0,1-2.18-.71A4.25,4.25,0,0,0,22,16.38c-.6-.11-1.2-.2-1.34-.24s-.7-.28-.51-.68,1.12,0,1.57.2.64.43,1.11.29l.15,0c.57-.23.79-.34,1.08,0s.71.85,1,.89a1.56,1.56,0,0,0,.57,0s-1-.94-1.47-1.4l-.05-.06c-.39-.42-.55-.75-.32-1.13a2.46,2.46,0,0,0,.25-.47,1.55,1.55,0,0,0-.38.22l-.44.31A.51.51,0,0,1,23,13.9c-.08-.24-.18-.58-.18-.58a2.44,2.44,0,0,0-.13.92s-.09.14-.49.1a.65.65,0,0,0,.45.18s0,.24,0,.36a.67.67,0,0,0,.31-.23.27.27,0,0,1,.41,0,2.25,2.25,0,0,1,.28.47c0,.11-.18.2-.41.25a1.75,1.75,0,0,1-.71.13,1.61,1.61,0,0,1-.84-.59c-.28-.34-.72-.71-.71-1s.89-.82,1.3-1.1,1.05-.71,1.17-.81a.64.64,0,0,1,.92.1l2.39,2.38.46.46a12.12,12.12,0,0,1,1.71,2.14c.41.75,2.19,4.4,3,6.16S34.3,29,34.58,29.81,35.15,32.09,34.58,32.73Z"/><path class="cls-2" d="M35.43,31.69a2.29,2.29,0,0,0,2.2,2.46,57.76,57.76,0,0,0,6.49.47,34.1,34.1,0,0,0,6.2-.41c1.22-.17,2.51-.53,2.85-.53s.52.2,1,.81a11.75,11.75,0,0,0,2-1.28,12.25,12.25,0,0,0,1.29-5.46c0-.07,0-.65,0-.85s0-.41,0-.61A18.2,18.2,0,0,0,54.59,26a18.51,18.51,0,0,0-6.88,1,43.22,43.22,0,0,0-4.27,1.41,15.14,15.14,0,0,0,.27-4.4,11.07,11.07,0,0,1,.34-3.88,21.63,21.63,0,0,1,.76-2.05,7.84,7.84,0,0,0,.94.06,4.79,4.79,0,0,0,2.13-.57,9.94,9.94,0,0,1,2.62-.8,2.37,2.37,0,0,0,.47-.15,1,1,0,0,0,.53-1.43,1.15,1.15,0,0,0-1-.53.91.91,0,0,0,.24-.74c0-.51-.58-1-1.05-1.36s-1.09-.78-1.7-1.17a1.45,1.45,0,0,0-1.58,0,14.24,14.24,0,0,0-1.34,1.25l-.92.93a25.59,25.59,0,0,0-2.29,2.57,22.48,22.48,0,0,0-2.42,4.58c-.63,1.53-2.28,5.21-2.74,6.3A12.22,12.22,0,0,0,35.43,31.69Z"/><path class="cls-4" d="M36.43,32.71c.56.63,1.38.82,2.79.9,1.21.07,3.38.28,4.47.27s2.28,0,4.44-.21c3.57-.33,4.24-.77,5.06-.78a1.44,1.44,0,0,1,1,.36A9.94,9.94,0,0,0,56.61,27a20.29,20.29,0,0,0-8,.52,24.78,24.78,0,0,0-6.52,2.38,6.57,6.57,0,0,0,.65-2.63c.14-1.78,0-5,.26-6.39A9.91,9.91,0,0,1,44.2,17.7c.4-.49.95-.26,1.41-.26a6.57,6.57,0,0,0,2.17-.71A4.63,4.63,0,0,1,49,16.39c.59-.11,1.19-.19,1.33-.24s.7-.27.51-.67-1.11,0-1.57.19-.63.44-1.1.3L48,15.92c-.57-.24-.79-.35-1.08,0s-.7.85-1,.89a1.81,1.81,0,0,1-.58,0s1-1,1.47-1.4l.05-.06c.39-.43.55-.76.32-1.13a3.32,3.32,0,0,1-.25-.47,1.55,1.55,0,0,1,.38.22l.44.31a.56.56,0,0,0,.34-.31c.08-.24.18-.58.18-.58a2.44,2.44,0,0,1,.13.92s.09.13.48.1a.61.61,0,0,1-.44.17s0,.25,0,.37a.76.76,0,0,1-.31-.23.26.26,0,0,0-.41,0,2.25,2.25,0,0,0-.28.47c0,.11.18.2.41.25a1.74,1.74,0,0,0,.71.12,1.64,1.64,0,0,0,.84-.58c.28-.34.71-.71.71-1s-.89-.82-1.3-1.1-1.05-.71-1.17-.8a.63.63,0,0,0-.91.09l-2.4,2.38-.45.45a11.86,11.86,0,0,0-1.71,2.15c-.41.74-2.18,4.38-3,6.14S36.72,29,36.43,29.79,35.86,32.07,36.43,32.71Z"/><rect class="cls-2" x="68.36" y="27.96" width="2.29" height="2.09"/><rect class="cls-2" x="68.36" y="31.09" width="2.29" height="8.94"/><path class="cls-2" d="M97.3,34a4.8,4.8,0,0,0-.78-1.68,4.09,4.09,0,0,0-1.39-1.18,4.24,4.24,0,0,0-2-.43,4.63,4.63,0,0,0-1.85.36A4.27,4.27,0,0,0,89,33.52a5.12,5.12,0,0,0-.33,1.86,5.51,5.51,0,0,0,.32,1.89,4.22,4.22,0,0,0,.9,1.47,4,4,0,0,0,1.43,1,5.13,5.13,0,0,0,1.89.33,4.67,4.67,0,0,0,2.58-.69,4.08,4.08,0,0,0,1.58-2.28H95.17a1.54,1.54,0,0,1-.65.78,2.17,2.17,0,0,1-1.28.37,2.22,2.22,0,0,1-1.58-.53,2.54,2.54,0,0,1-.6-1.72h6.41A6.18,6.18,0,0,0,97.3,34Zm-6.24.43a2.91,2.91,0,0,1,.11-.58,2.07,2.07,0,0,1,.33-.62,1.93,1.93,0,0,1,.62-.49,2.15,2.15,0,0,1,1-.2,1.72,1.72,0,0,1,1.33.48A2.88,2.88,0,0,1,95,34.41Z"/><path class="cls-2" d="M87,33.12c-1.27,0-1.87.82-1.87,2.14V40H82.77V35.3c.07-2.95,1.52-4.59,4.58-4.59H88v2.38Z"/><path class="cls-2" d="M77.79,30.64a2.85,2.85,0,0,0-2.59,1.41V28h-.26a2.24,2.24,0,0,0-2,1.12v6.86c0,2.74,1.43,4.11,4.27,4.09s4.24-1.59,4.24-4.62S80.22,30.72,77.79,30.64Zm-.68,7.44c-1.31,0-1.93-.93-1.91-2.77s.71-2.62,2-2.62,1.88.86,1.93,2.62S78.42,38.08,77.11,38.08Z"/><path class="cls-2" d="M63.61,40V29.43A2,2,0,0,1,65.3,28h.6V40Z"/><path class="cls-2" d="M133.4,18.56a4.62,4.62,0,0,0-1-1.53,4.36,4.36,0,0,0-1.5-1,5.19,5.19,0,0,0-2-.35,5.07,5.07,0,0,0-2,.35,4.23,4.23,0,0,0-1.49,1,4.32,4.32,0,0,0-1,1.53,5.58,5.58,0,0,0-.34,2,5.47,5.47,0,0,0,.34,2,4.19,4.19,0,0,0,1,1.52,4.09,4.09,0,0,0,1.49,1,5.27,5.27,0,0,0,2,.34,5.4,5.4,0,0,0,2-.34,4.22,4.22,0,0,0,1.5-1,4.48,4.48,0,0,0,1-1.52,5.69,5.69,0,0,0,.34-2A5.8,5.8,0,0,0,133.4,18.56Zm-2.3,3.08a2.93,2.93,0,0,1-.36.95,1.82,1.82,0,0,1-.69.66,2.13,2.13,0,0,1-1.08.25,2.07,2.07,0,0,1-1.07-.25,1.87,1.87,0,0,1-.68-.66,2.73,2.73,0,0,1-.37-.95,5.47,5.47,0,0,1-.11-1.07,5.68,5.68,0,0,1,.11-1.09,2.54,2.54,0,0,1,.37-.94,1.93,1.93,0,0,1,1.75-.93,2.13,2.13,0,0,1,1.08.26,2,2,0,0,1,.69.67,2.71,2.71,0,0,1,.36.94,5,5,0,0,1,.11,1.09A4.8,4.8,0,0,1,131.1,21.64Z"/><path class="cls-2" d="M99.39,17.61a1.85,1.85,0,0,0-1,.28,2.14,2.14,0,0,0-.66.71,2.86,2.86,0,0,0-.37,1,5.31,5.31,0,0,0-.1,1,5.18,5.18,0,0,0,.1,1,3.14,3.14,0,0,0,.35.93,2,2,0,0,0,.65.69,1.82,1.82,0,0,0,1,.26,1.87,1.87,0,0,0,1.4-.5,2.46,2.46,0,0,0,.62-1.37h2.43a4.15,4.15,0,0,1-1.42,2.8,4.6,4.6,0,0,1-3,1A5,5,0,0,1,97.46,25a4.06,4.06,0,0,1-1.47-1,4.35,4.35,0,0,1-.94-1.48,5.1,5.1,0,0,1-.34-1.9,6,6,0,0,1,.31-2,4.49,4.49,0,0,1,.92-1.59,4.22,4.22,0,0,1,1.47-1,5,5,0,0,1,2-.37,5.83,5.83,0,0,1,1.57.21,4.13,4.13,0,0,1,1.35.65,3.39,3.39,0,0,1,1,1.09,3.47,3.47,0,0,1,.43,1.54h-2.47A1.7,1.7,0,0,0,99.39,17.61Z"/><path class="cls-2" d="M87.14,19.14a4.9,4.9,0,0,0-.8-1.73,4.11,4.11,0,0,0-1.41-1.2,4.37,4.37,0,0,0-2-.45,4.62,4.62,0,0,0-1.89.37,4.48,4.48,0,0,0-1.48,1,4.66,4.66,0,0,0-1,1.52,5.75,5.75,0,0,0,0,3.84A4.24,4.24,0,0,0,79.5,24,4.13,4.13,0,0,0,81,25a5.2,5.2,0,0,0,1.94.34,4.77,4.77,0,0,0,2.64-.7,4.15,4.15,0,0,0,1.62-2.35H85a1.58,1.58,0,0,1-.67.8,2.17,2.17,0,0,1-1.3.38,2.23,2.23,0,0,1-1.62-.54,2.49,2.49,0,0,1-.62-1.76h6.57A6.21,6.21,0,0,0,87.14,19.14Zm-6.39.44a3,3,0,0,1,.11-.6,1.94,1.94,0,0,1,.34-.63,2,2,0,0,1,.63-.51,2.28,2.28,0,0,1,1-.2,1.74,1.74,0,0,1,1.36.5,2.87,2.87,0,0,1,.63,1.44Z"/><path class="cls-2" d="M120.42,13.67v3.57a2.91,2.91,0,0,0-2.66-1.45c-2.49.09-3.73,1.71-3.73,4.89s1.45,4.68,4.35,4.74,4.38-1.38,4.38-4.19V12.8A2.6,2.6,0,0,0,120.42,13.67Zm-2,9.75c-1.34,0-2-1-2-2.84s.73-2.69,2-2.69,1.92.88,2,2.69S119.74,23.42,118.4,23.42Z"/><path class="cls-2" d="M108.73,15.71c-2.67,0-3.58,1.2-3.66,3h2.19a1.44,1.44,0,0,1,1.57-1.09c1,0,1.47.27,1.52.8s-.51.81-1.52.93c-2.36.23-4,.83-4,3.08,0,2.07,1.55,3.11,3.8,2.93,2.52-.18,4.08-1.32,4.08-3.9V18.29C112.62,16.55,111.31,15.71,108.73,15.71Zm1.66,5.65a1.93,1.93,0,0,1-2.1,2.1,1,1,0,0,1-1.19-1.09c0-.69.48-1.13,1.42-1.31a10.23,10.23,0,0,0,1.87-.46Z"/><path class="cls-2" d="M93,18.25c-1.31,0-1.93.84-1.93,2.2v4.86H88.7V20.49c.07-3,1.56-4.7,4.69-4.7h.71v2.44Z"/><path class="cls-2" d="M76,25.31c-.78,0-1.17-.42-1.17-1.17v-4.8c-.05-1-.58-1.45-1.62-1.45s-1.58.48-1.59,1.45v5.94H69.21v-6c-.06-1-.58-1.45-1.63-1.45S66,18.33,66,19.3v6H63.61v-5.5c0-2.67,1.34-4,4-4a4.37,4.37,0,0,1,2.79.79,4.49,4.49,0,0,1,2.79-.76c2.67,0,4,1.33,4,4v5.49Z"/></g></g></svg>