<svg xmlns="http://www.w3.org/2000/svg" viewBox="0 0 19.1 29.27"><defs><style>.cls-1{fill:#009eff;}</style></defs><title>Mouse</title><g id="Capa_2" data-name="Capa 2"><g id="Layer_1" data-name="Layer 1"><path class="cls-1" d="M9.57,24.73l-5.2-5.5,1.9-1.79,3.29,3.48,3.28-3.48,1.9,1.79Z"/><path class="cls-1" d="M9.55,29.27A9.56,9.56,0,0,1,0,19.72V9.55a9.55,9.55,0,0,1,19.1,0V19.72A9.56,9.56,0,0,1,9.55,29.27Zm0-26.66A7,7,0,0,0,2.61,9.55V19.72a6.94,6.94,0,0,0,13.88,0V9.55A7,7,0,0,0,9.55,2.61Z"/><path class="cls-1" d="M10.68,5.88A1.13,1.13,0,1,1,9.55,4.75,1.13,1.13,0,0,1,10.68,5.88Z"/><path class="cls-1" d="M10.68,5.88A1.13,1.13,0,1,1,9.55,4.75,1.13,1.13,0,0,1,10.68,5.88Z"/><path class="cls-1" d="M10.68,10.4A1.13,1.13,0,1,1,9.55,9.27,1.13,1.13,0,0,1,10.68,10.4Z"/><path class="cls-1" d="M10.68,10.4A1.13,1.13,0,1,1,9.55,9.27,1.13,1.13,0,0,1,10.68,10.4Z"/><path class="cls-1" d="M10.68,14.92a1.13,1.13,0,1,1-1.13-1.13A1.13,1.13,0,0,1,10.68,14.92Z"/><path class="cls-1" d="M10.68,14.92a1.13,1.13,0,1,1-1.13-1.13A1.13,1.13,0,0,1,10.68,14.92Z"/></g></g></svg>