<svg xmlns="http://www.w3.org/2000/svg" viewBox="0 0 23.72 17.14"><defs><style>.cls-1{fill:#0df;}</style></defs><g id="Layer_2" data-name="Layer 2"><g id="Layer_1-2" data-name="Layer 1"><path class="cls-1" d="M11.86,17.14h0c-.71,0-7-.06-8.83-.54A3.67,3.67,0,0,1,.44,14,27.19,27.19,0,0,1,0,8.59,27.64,27.64,0,0,1,.44,3.13h0A3.74,3.74,0,0,1,3,.53H3C4.8.06,11.14,0,11.85,0h0c.71,0,7.06.06,8.84.55a3.65,3.65,0,0,1,2.57,2.57,26.31,26.31,0,0,1,.44,5.49A27.67,27.67,0,0,1,23.29,14h0a3.62,3.62,0,0,1-2.58,2.57h0c-1.77.46-8.12.52-8.83.52ZM2.23,3.61a26.85,26.85,0,0,0-.38,5v0a25.34,25.34,0,0,0,.38,4.93A1.81,1.81,0,0,0,3.5,14.81a62.83,62.83,0,0,0,8.36.48,62.73,62.73,0,0,0,8.36-.47,1.78,1.78,0,0,0,1.27-1.26,24.68,24.68,0,0,0,.38-4.93v0a25,25,0,0,0-.37-5h0a1.77,1.77,0,0,0-1.27-1.27,62.53,62.53,0,0,0-8.36-.49,66.39,66.39,0,0,0-8.36.47A1.84,1.84,0,0,0,2.23,3.61ZM22.39,13.79ZM9.5,12.32V4.82L16,8.57Z"/></g></g></svg>